<svg xmlns="http://www.w3.org/2000/svg" xmlns:xlink="http://www.w3.org/1999/xlink" viewBox="0,0,256,256" width="128px" height="128px"><g fill="#ffffff" fill-rule="nonzero" stroke="none" stroke-width="1" stroke-linecap="butt" stroke-linejoin="miter" stroke-miterlimit="10" stroke-dasharray="" stroke-dashoffset="0" font-family="none" font-weight="none" font-size="none" text-anchor="none" style="mix-blend-mode: normal"><g transform="scale(4,4)"><path d="M38.69336,3.50781l-5.08398,8.89453l-5,2l-4.53516,7.9375l-0.33789,2.36719l-4.69531,-6.70703h-4.56055l-4.76172,17.14063l-3.71875,1.85938l-2,18.40039h56l-2,-14.40039l-1.10156,-1.6543l-3.1582,-12.63477l-5,-3l-2.91016,-11.64063zM39.30664,10.49414l2.86328,3.43555l0.75977,3.04297l-0.92969,13.02734l-5,-8l-2,3l-3,-4l-0.66211,-3.31055l0.05273,-0.0918l5,-2zM17.35938,22.57422l5.49805,7.85352l-2.85742,8.57227l-2,-6l-2,-1l-0.52734,-2.63281zM30,29l2,2v2l2,3l-2,4l-1,-4l-3,-2zM46,34l1,2l-1,2l-1,5l-5,2l3,-4v-3z"></path></g></g></svg>